<?xml version="1.0" encoding="UTF-8"?>
<svg id="Capa_1" data-name="Capa 1" xmlns="http://www.w3.org/2000/svg" viewBox="0 0 126.471 119.201">
  <defs>
    <style>
      .cls-1 {
        stroke-width: 0px;
      }
    </style>
  </defs>
  <path class="cls-1" d="m105.167,85.743c8.681-1.935,15.941-4.453,21.182-7.377v-11.501c0,4.309-11.464,8.102-28.784,10.29-8.109,1.025-17.495,1.699-27.602,1.907-2.209.046-4.45.07-6.72.07-.002,0-.004,0-.006,0s-.004,0-.006,0c-2.271,0-4.512-.024-6.72-.07-10.107-.208-19.493-.882-27.602-1.907C11.587,74.966.123,71.174.123,66.865v11.501c5.241,2.923,12.501,5.442,21.182,7.377L0,108.572v10.628h19.866l27.502-29.819c5.105.357,10.411.548,15.861.548.002,0,.004,0,.006,0s.004,0,.006,0c5.45,0,10.756-.191,15.861-.548l27.502,29.819h19.866v-10.628l-21.304-22.829Z"/>
  <path class="cls-1" d="m90.701,40.318L126.348,0h-29.275l-31.41,35.526-8.341,9.356c-2.974.075-5.9.204-8.761.388l-7.893.658c-17.331,1.777-31.772,5.542-40.544,10.44v10.497c0-5.77,20.555-10.606,48.216-11.907l-13.176,14.001h31.112l12.533-13.967c27.321,1.347,47.541,6.149,47.541,11.873v-10.497c-8.727-4.868-23.043-8.614-40.223-10.404l4.576-5.646Z"/>
  <polygon class="cls-1" points="38.98 14.848 19.82 0 .123 0 .123 10.853 .122 10.853 38.98 43.552 38.98 21.722 38.98 14.848"/>
</svg>